# xmcd
#
# Track frame offsets:
#	150
#	10612
#	25717
#	39840
#	56115
#	69302
#	85037
#	96460
#	113810
#	127077
#
# Disc length: 1876 seconds
#
# Revision: 1
# Processed by: cddbd v1.5.2PL0 Copyright (c) Steve Scherf et al.
# Submitted via: audiograbber 1.83.01
#
DISCID=7707520a
DTITLE=Georges Hamel - La Voix De Mon Coeur
DYEAR=1995
DGENRE=Country
TTITLE0=Faut Être Fait Fort(Denis Champoux-Denis Champoux)
TTITLE1=Feuilles D'automne(Marcel Martel-Marcel Martel)
TTITLE2=La Voix De Mon Coeur(Marcel Martel-Marcel Martel)
TTITLE3=Dans Les Bras D'un Autre(Georges Hamel-Georges Hamel)
TTITLE4=Un Vieux Marin(Denis Champoux-Denis Champoux)
TTITLE5=Sauras-Tu Pardonner(Georges Hamel-Georges Hamel)
TTITLE6=Mon Grand-Papa(Marcel Martel-Marcel Martel)
TTITLE7=Donne-Moi Ta Guitare(Denis Champoux-Denis Champoux)
TTITLE8=Ce N'était Qu'un Rêve(Denis Champoux-Denis Champoux)
TTITLE9=Guide Mes Pas(Denis Champoux-Denis Champoux)
EXTD=
EXTT0=
EXTT1=
EXTT2=
EXTT3=
EXTT4=
EXTT5=
EXTT6=
EXTT7=
EXTT8=
EXTT9=
PLAYORDER=
